<?xml version="1.0" encoding="UTF-8"?><!DOCTYPE svg PUBLIC "-//W3C//DTD SVG 1.1//EN" "http://www.w3.org/Graphics/SVG/1.1/DTD/svg11.dtd"><svg xmlns="http://www.w3.org/2000/svg" xmlns:xlink="http://www.w3.org/1999/xlink"><defs/><symbol id="fullscreen-exit" viewBox="0 0 36 36">
    <g>
        <path d="m 20,26 2,0 0,-4 4,0 0,-2 -6,0 0,6 0,0 z"/>
    </g>
    <g>
        <path d="m 10,22 4,0 0,4 2,0 0,-6 -6,0 0,2 0,0 z"/>
    </g>
    <g>
        <path d="m 14,14 -4,0 0,2 6,0 0,-6 -2,0 0,4 0,0 z"/>
    </g>
    <g>
        <path d="m 22,14 0,-4 -2,0 0,6 6,0 0,-2 -4,0 0,0 z"/>
    </g>
</symbol><symbol id="fullscreen" viewBox="0 0 36 36">
    <g>
	    <path d="m 10,16 2,0 0,-4 4,0 0,-2 L 10,10 l 0,6 0,0 z"/>
    </g>
    <g>
	    <path d="m 20,10 0,2 4,0 0,4 2,0 L 26,10 l -6,0 0,0 z"/>
    </g>
    <g>
        <path d="m 24,24 -4,0 0,2 L 26,26 l 0,-6 -2,0 0,4 0,0 z"/>
    </g>
    <g>
        <path d="M 12,20 10,20 10,26 l 6,0 0,-2 -4,0 0,-4 0,0 z"/>
    </g>
</symbol><symbol id="pause" viewBox="0 0 36 36">
    <path d="M 12,26 16,26 16,10 12,10 z M 21,26 25,26 25,10 21,10 z"/>
</symbol><symbol id="play-circle-outline" viewBox="0 0 36 36">
  <path d="m18,26c-4.41,0 -8,-3.59 -8,-8c0,-4.41 3.59,-8 8,-8c4.41,0 8,3.59 8,8c0,4.41 -3.59,8 -8,8m0,-18a10,10 0 0 0 -10,10a10,10 0 0 0 10,10a10,10 0 0 0 10,-10a10,10 0 0 0 -10,-10m-2,14.5l6,-4.5l-6,-4.5l0,9z"/>
</symbol><symbol id="play" viewBox="0 0 36 36">
    <path d="M 12,26 18.5,22 18.5,14 12,10 z M 18.5,22 25,18 25,18 18.5,14 z"/>
</symbol><symbol id="settings" viewBox="0 0 36 36">
  <path d="M 18.002 21.5 C 16.069 21.5 14.502 19.933 14.502 18 C 14.502 16.067 16.069 14.5 18.002 14.5 C 19.935 14.5 21.502 16.067 21.502 18 C 21.502 19.933 19.935 21.5 18.002 21.5 M 25.432 18.97 C 25.472 18.65 25.502 18.33 25.502 18 C 25.502 17.67 25.472 17.34 25.432 17 L 27.542 15.37 C 27.732 15.22 27.782 14.95 27.662 14.73 L 25.662 11.27 C 25.542 11.05 25.272 10.96 25.052 11.05 L 22.562 12.05 C 22.042 11.66 21.502 11.32 20.872 11.07 L 20.502 8.42 C 20.462 8.18 20.252 8 20.002 8 L 16.002 8 C 15.752 8 15.542 8.18 15.502 8.42 L 15.132 11.07 C 14.502 11.32 13.962 11.66 13.442 12.05 L 10.952 11.05 C 10.732 10.96 10.462 11.05 10.342 11.27 L 8.342 14.73 C 8.212 14.95 8.272 15.22 8.462 15.37 L 10.572 17 C 10.532 17.34 10.502 17.67 10.502 18 C 10.502 18.33 10.532 18.65 10.572 18.97 L 8.462 20.63 C 8.272 20.78 8.212 21.05 8.342 21.27 L 10.342 24.73 C 10.462 24.95 10.732 25.03 10.952 24.95 L 13.442 23.94 C 13.962 24.34 14.502 24.68 15.132 24.93 L 15.502 27.58 C 15.542 27.82 15.752 28 16.002 28 L 20.002 28 C 20.252 28 20.462 27.82 20.502 27.58 L 20.872 24.93 C 21.502 24.67 22.042 24.34 22.562 23.94 L 25.052 24.95 C 25.272 25.03 25.542 24.95 25.662 24.73 L 27.662 21.27 C 27.782 21.05 27.732 20.78 27.542 20.63 L 25.432 18.97 Z"/>
</symbol><symbol id="skip-next" viewBox="0 0 36 36">
  <path d="M 22 24 L 24 24 L 24 12 L 22 12 M 12 24 L 20.5 18 L 12 12 L 12 24 Z"/>
</symbol><symbol id="skip-previous" viewBox="0 0 36 36">
  <path d="M 12 24 L 12 12 L 14 12 L 14 24 L 12 24 M 15.5 18 L 24 12 L 24 24 L 15.5 18 Z"/>
</symbol><symbol id="subtitle-outline" viewBox="0 0 36 36">
  <path d="M 26 10 C 27.105 10 28 10.895 28 12 L 28 24 C 28 25.105 27.105 26 26 26 L 10 26 C 8.895 26 8 25.105 8 24 L 8 12 C 8 10.895 8.895 10 10 10 L 26 10 M 26 24 L 26 12 L 10 12 L 10 24 L 26 24 M 12 16 L 14 16 L 14 18 L 12 18 L 12 16 M 12 20 L 20 20 L 20 22 L 12 22 L 12 20 M 22 20 L 24 20 L 24 22 L 22 22 L 22 20 M 16 16 L 24 16 L 24 18 L 16 18 L 16 16 Z"/>
</symbol><symbol id="subtitle" viewBox="0 0 36 36">
  <path d="M 26 10 L 10 10 C 8.895 10 8 10.895 8 12 L 8 24 C 8 25.105 8.895 26 10 26 L 26 26 C 27.105 26 28 25.105 28 24 L 28 12 C 28 10.895 27.105 10 26 10 M 10 18 L 14 18 L 14 20 L 10 20 L 10 18 M 20 24 L 10 24 L 10 22 L 20 22 L 20 24 M 26 24 L 22 24 L 22 22 L 26 22 L 26 24 M 26 20 L 16 20 L 16 18 L 26 18 L 26 20 Z"/>
</symbol><symbol id="theater-mode-enter" viewBox="0 0 36 36">
  <path d="M 10 12.266 L 10 23.734 L 26 23.734 L 26 12.266 L 10 12.266 M 24 21.734 L 12 21.734 L 12 14.266 L 24 14.266 L 24 21.734 Z"/>
</symbol><symbol id="theater-mode-exit" viewBox="0 0 36 36">
  <path d="M 10 13.458 L 10 22.543 L 26 22.543 L 26 13.458 L 10 13.458 M 24 20.543 L 12 20.543 L 12 15.458 L 24 15.458 L 24 20.543 Z"/>
</symbol><symbol id="volume-high" viewBox="0 0 36 36">
  <path d="M 20 9.23 L 20 11.29 C 22.89 12.15 25 14.83 25 18 C 25 21.17 22.89 23.84 20 24.7 L 20 26.77 C 24 25.86 27 22.28 27 18 C 27 13.72 24 10.14 20 9.23 M 22.5 18 C 22.5 16.23 21.5 14.71 20 13.97 L 20 22 C 21.5 21.29 22.5 19.76 22.5 18 M 9 15 L 9 21 L 13 21 L 18 26 L 18 10 L 13 15 L 9 15 Z"/>
</symbol><symbol id="volume-low" viewBox="0 0 36 36">
  <path d="M 22.5 18 C 22.5 16.23 21.5 14.71 20 13.97 L 20 22 C 21.5 21.29 22.5 19.76 22.5 18 M 9 15 L 9 21 L 13 21 L 18 26 L 18 10 L 13 15 L 9 15 Z"/>
</symbol><symbol id="volume-muted" viewBox="0 0 36 36">
  <path d="M 18 10 L 15.91 12.09 L 18 14.18 M 10.27 9 L 9 10.27 L 13.73 15 L 9 15 L 9 21 L 13 21 L 18 26 L 18 19.27 L 22.25 23.53 C 21.58 24.04 20.83 24.46 20 24.7 L 20 26.77 C 21.38 26.45 22.63 25.82 23.68 24.96 L 25.73 27 L 27 25.73 L 18 16.73 M 25 18 C 25 18.94 24.8 19.82 24.46 20.64 L 25.97 22.15 C 26.62 20.91 27 19.5 27 18 C 27 13.72 24 10.14 20 9.23 L 20 11.29 C 22.89 12.15 25 14.83 25 18 M 22.5 18 C 22.5 16.23 21.5 14.71 20 13.97 L 20 16.18 L 22.45 18.63 C 22.5 18.43 22.5 18.21 22.5 18 Z"/>
</symbol></svg>